<?xml version="1.0" encoding="UTF-8" standalone="no"?>
<!DOCTYPE svg PUBLIC "-//W3C//DTD SVG 1.1//EN" "http://www.w3.org/Graphics/SVG/1.1/DTD/svg11.dtd">
<svg width="100%" height="100%" viewBox="0 0 4713 4509" version="1.1" xmlns="http://www.w3.org/2000/svg" xmlns:xlink="http://www.w3.org/1999/xlink" xml:space="preserve" xmlns:serif="http://www.serif.com/" style="fill-rule:evenodd;clip-rule:evenodd;stroke-linejoin:round;stroke-miterlimit:2;">
    <g id="Layer-11" serif:id="Layer 11" transform="matrix(4.16667,0,0,4.16667,0,0)">
        <g transform="matrix(0.300508,-0.953779,0.953779,0.300508,0,0)">
            <text x="-403.957px" y="326.575px" style="font-family:'Hanley-Sans', 'Hanley';font-size:133.346px;fill:rgb(32,31,35);">D</text>
        </g>
        <g transform="matrix(0.491582,-0.870831,0.870831,0.491582,0,0)">
            <text x="-243.609px" y="384.868px" style="font-family:'Hanley-Sans', 'Hanley';font-size:133.346px;fill:rgb(32,31,35);">u</text>
        </g>
        <g transform="matrix(0.657942,-0.753068,0.753068,0.657942,0,0)">
            <text x="-75.227px" y="408.349px" style="font-family:'Hanley-Sans', 'Hanley';font-size:133.346px;fill:rgb(32,31,35);">c</text>
        </g>
        <g transform="matrix(0.793684,-0.60833,0.60833,0.793684,0,0)">
            <text x="84.7px" y="398.268px" style="font-family:'Hanley-Sans', 'Hanley';font-size:133.346px;fill:rgb(32,31,35);">k</text>
        </g>
        <g transform="matrix(0.925095,-0.379736,0.379736,0.925095,0,0)">
            <text x="302.073px" y="335.389px" style="font-family:'Hanley-Sans', 'Hanley';font-size:133.346px;fill:rgb(32,31,35);">F</text>
        </g>
        <g transform="matrix(0.975398,-0.22045,0.22045,0.975398,0,0)">
            <text x="411.857px" y="268.332px" style="font-family:'Hanley-Sans', 'Hanley';font-size:133.346px;fill:rgb(32,31,35);">a</text>
        </g>
        <g transform="matrix(0.998526,-0.054277,0.054277,0.998526,0,0)">
            <text x="527.323px" y="181.848px" style="font-family:'Hanley-Sans', 'Hanley';font-size:133.346px;fill:rgb(32,31,35);">t</text>
        </g>
        <g transform="matrix(0.980822,0.194908,-0.194908,0.980822,0,0)">
            <text x="658.416px" y="22.366px" style="font-family:'Hanley-Sans', 'Hanley';font-size:133.346px;fill:rgb(32,31,35);">S</text>
        </g>
        <g transform="matrix(0.931585,0.363524,-0.363524,0.931585,0,0)">
            <text x="723.576px" y="-106.592px" style="font-family:'Hanley-Sans', 'Hanley';font-size:133.346px;fill:rgb(32,31,35);">t</text>
        </g>
        <g transform="matrix(0.844778,0.535116,-0.535116,0.844778,0,0)">
            <text x="762.751px" y="-258.479px" style="font-family:'Hanley-Sans', 'Hanley';font-size:133.346px;fill:rgb(32,31,35);">u</text>
        </g>
        <g transform="matrix(0.716949,0.697126,-0.697126,0.716949,0,0)">
            <text x="778.625px" y="-427.809px" style="font-family:'Hanley-Sans', 'Hanley';font-size:133.346px;fill:rgb(32,31,35);">d</text>
        </g>
        <g transform="matrix(0.604205,0.796829,-0.796829,0.604205,0,0)">
            <text x="791.723px" y="-551.331px" style="font-family:'Hanley-Sans', 'Hanley';font-size:133.346px;fill:rgb(32,31,35);">i</text>
        </g>
        <g transform="matrix(0.469753,0.882798,-0.882798,0.469753,0,0)">
            <text x="732.074px" y="-678.923px" style="font-family:'Hanley-Sans', 'Hanley';font-size:133.346px;fill:rgb(32,31,35);">o</text>
        </g>
        <g transform="matrix(0.280709,0.959793,-0.959793,0.280709,0,0)">
            <text x="670.299px" y="-831.957px" style="font-family:'Hanley-Sans', 'Hanley';font-size:133.346px;fill:rgb(32,31,35);">s</text>
        </g>
        <g transform="matrix(1,0,0,1,993.399,557.833)">
            <path d="M0,7.336C0,-209.815 -176.666,-386.48 -393.817,-386.48C-610.969,-386.48 -787.634,-209.815 -787.634,7.336C-787.634,198.586 -650.59,358.405 -469.553,393.816C-471.743,382.242 -473.956,370.6 -476.194,358.908C-635.723,321.537 -754.88,178.094 -754.88,7.336C-754.88,-191.755 -592.908,-353.726 -393.817,-353.726C-194.728,-353.726 -32.754,-191.755 -32.754,7.336C-32.754,179.518 -153.913,323.914 -315.446,359.807C-312.594,370.784 -309.087,381.131 -304.272,390.876C-130.117,350.228 0,193.694 0,7.336" style="fill:rgb(32,31,35);fill-rule:nonzero;"/>
        </g>
        <g transform="matrix(1,0,0,1,650.734,954.525)">
            <path d="M0,-27.283L-1.351,-31.744C-17.636,-29.487 -34.256,-28.294 -51.152,-28.294C-67.643,-28.294 -83.871,-29.428 -99.78,-31.579C-98.72,-27.257 -97.487,-22.646 -96.07,-17.729C-91.992,-10.887 -85.416,-4.421 -80.089,0.819C-79.152,1.739 -78.255,2.622 -77.41,3.467L-77.307,3.571C-68.658,4.141 -59.942,4.461 -51.152,4.461C-31.951,4.461 -13.075,3.052 5.399,0.384C5.643,-8.613 2.785,-18.087 0,-27.283" style="fill:rgb(32,31,35);fill-rule:nonzero;"/>
        </g>
        <g transform="matrix(1,0,0,1,560.702,514.735)">
            <path d="M0,-37.361C8.766,-44.775 22.386,-45.76 31.791,-39.901C41.855,-49.674 53.197,-58.129 65.437,-64.982C71.145,-68.179 78.201,-71.041 83.978,-67.969C89.484,-65.041 91.233,-58.011 91.518,-51.781C91.889,-43.619 90.729,-35.389 88.114,-27.648C86.813,-23.794 85.128,-19.847 85.668,-15.815C86.096,-12.619 87.877,-9.796 89.389,-6.947C94.541,2.763 96.894,13.939 96.093,24.902C95.922,27.243 95.496,29.799 93.716,31.33C92.158,32.669 89.951,32.881 87.899,32.945C64.271,33.68 40.6,22.024 26.776,2.846C16.996,6.098 6.059,5.735 -3.484,1.841C-17.277,20.118 -39.791,31.495 -63.886,32C-71.382,16.615 -69.308,-2.967 -58.753,-16.44C-64.128,-28.108 -66.253,-41.254 -64.829,-54.02C-64.431,-57.59 -63.633,-61.38 -61.042,-63.866C-56.682,-68.05 -49.567,-66.668 -43.906,-64.555C-27.122,-58.294 -11.872,-47.962 0,-37.361" style="fill:rgb(241,90,38);fill-rule:nonzero;"/>
        </g>
        <g transform="matrix(1,0,0,1,635.043,883.728)">
            <path d="M0,-323.665C-16.464,-326.666 -32.031,-334.425 -44.34,-345.764C-45.752,-347.064 -47.149,-348.431 -48.864,-349.293C-50.084,-349.907 -51.421,-350.244 -52.753,-350.548C-61.602,-352.565 -70.74,-353.304 -79.696,-352.08C-79.901,-351.866 -80.105,-351.652 -80.598,-351.111C-104.82,-337.896 -121.37,-307.035 -138.589,-279.305C-153.913,-254.625 -173.78,-238.193 -187.857,-212.781C-201.473,-188.204 -209.503,-151.524 -202.643,-124.279C-198.004,-105.858 -184.739,-91.09 -172.937,-76.206C-150.129,-47.444 -131.423,-15.622 -114.924,17.169C-112.054,22.872 -107.076,29.639 -100.966,27.784C-96.915,26.556 -94.979,22.038 -93.733,17.992C-89.954,5.714 -87.762,-7.053 -87.229,-19.89C-68.558,-16.264 -49.482,-14.718 -30.471,-15.289C-27.715,-15.372 -24.86,-15.482 -22.312,-14.43C-19.603,-13.31 -17.586,-11.018 -15.612,-8.85C-8.179,-0.685 0.048,6.757 8.916,13.335C11.766,15.45 14.947,17.562 18.496,17.501C21.483,17.45 24.215,15.852 26.631,14.094C43.916,1.519 51.755,-20.217 66.106,-36.058C75.613,-46.551 87.796,-54.249 97.968,-64.099C129.168,-94.312 137.937,-140.568 161.601,-176.491C147.361,-177.479 132.843,-173.98 120.617,-166.613L138.128,-188.108C140.835,-191.431 144.53,-195.116 148.694,-194.101C140.135,-194.516 133.319,-201.027 126.896,-206.702C116.006,-216.326 103.912,-224.586 90.985,-231.227C78.854,-237.461 65.965,-242.293 54.473,-249.64C44.375,-256.094 35.545,-264.379 27.625,-273.372C14.785,-287.955 4.086,-304.787 0,-323.665" style="fill:rgb(32,31,35);fill-rule:nonzero;"/>
        </g>
        <g transform="matrix(1,0,0,1,661.275,1052.06)">
            <path d="M0,-165.994C4.247,-142.648 8.887,-119.002 19.608,-97.834C22.963,-91.21 27.006,-84.748 32.783,-80.083C38.422,-75.53 45.375,-72.955 52.286,-70.77C67.435,-65.982 83.146,-62.661 97.488,-55.829C111.831,-48.998 122.807,-41.549 132.212,-26.668C116.576,-31.197 102.542,-36.639 87.487,-35.216C85.282,-35.008 83.021,-34.652 81.132,-33.496C76.711,-30.789 75.798,-24.619 76.926,-19.559C78.053,-14.5 80.701,-9.867 81.724,-4.786C82.146,-2.683 81.983,0.027 80.027,0.904C78.617,1.537 76.992,0.852 75.62,0.14C67.434,-4.108 59.925,-9.634 51.502,-13.391C37.964,-19.432 22.832,-20.595 8.046,-21.672C-12.316,-23.157 -32.032,-19.611 -50.298,-10.097C-52.559,-13.544 -54.707,-20.982 -51.178,-23.116C-49.937,-23.866 -48.315,-24.466 -48.003,-25.882C-47.751,-27.025 -43.271,-34.32 -40.137,-36.749C-30.487,-44.228 -20.515,-51.425 -12.191,-60.356C-3.869,-69.289 2.813,-80.255 4.35,-92.366C5.86,-104.271 2.342,-116.178 -1.136,-127.664C-4.336,-138.231 -7.536,-148.799 -10.736,-159.365C-11.248,-161.054 -11.738,-162.969 -10.868,-164.504C-9.151,-167.531 -4.547,-166.094 0,-165.994" style="fill:rgb(32,31,35);fill-rule:nonzero;"/>
        </g>
        <g transform="matrix(1,0,0,1,536.435,1026.87)">
            <path d="M0,-133.496C0.121,-119.825 4.812,-101.001 9.122,-86.194C14.549,-76.498 23.741,-68.129 29.94,-61.93C25.129,-63.769 20.318,-65.609 15.507,-67.448C19.385,-57.656 23.107,-45.963 17.284,-37.186C15.18,-34.015 12.059,-31.687 9.092,-29.303C-8.164,-15.438 -22.139,2.485 -31.377,22.602C-31.822,19.391 -32.439,15.862 -34.957,13.821C-35.967,13.002 -37.196,12.508 -38.415,12.053C-55.195,5.792 -72.898,1.719 -101.416,11.864C-103.637,12.493 -104.98,14.602 -109.559,17.01C-108.226,11.762 -102.448,3.501 -103.974,-3.79C-114.498,-12.633 -139.717,-5.523 -146.559,-3.646C-143.735,-8.046 -145.256,-8.369 -142.231,-11.683C-141.372,-12.626 -139.741,-14.579 -139.386,-15.804C-138.732,-18.056 -138.005,-18.503 -136.713,-20.459C-136.226,-21.196 -135.379,-21.598 -134.571,-21.957C-94.758,-39.672 -49.689,-40.021 -7.119,-49.334C-3.942,-50.028 -0.25,-51.246 0.666,-54.366C1.076,-55.764 0.809,-57.261 0.538,-58.692C-5.602,-91.183 -11.74,-123.676 -18.14,-156.098C-13.112,-146.134 -5.317,-142.257 0,-133.496" style="fill:rgb(32,31,35);fill-rule:nonzero;"/>
        </g>
        <g transform="matrix(1,0,0,1,622.299,259.145)">
            <path d="M0,21.028C2.412,21.561 4.818,22.13 7.22,22.697C14.689,24.462 21.834,26.137 28.867,26.704C17.326,8.575 -3.03,-4.039 -24.591,-5.114C-35.873,-5.676 -47.812,-3.056 -56.141,4.575C-58.236,6.495 -59.396,10.883 -60.837,15.282C-39.695,14.931 -18.919,16.847 0,21.028" style="fill:rgb(32,31,35);fill-rule:nonzero;"/>
        </g>
        <g transform="matrix(1,0,0,1,700.936,420.184)">
            <path d="M0,-57.442C-1.843,-59.534 -3.43,-61.821 -4.937,-64.168C-7.542,-64.973 -10.121,-65.978 -12.642,-67.245C-22.158,-72.03 -29.885,-80.01 -34.396,-89.716C-36.655,-94.576 -38.928,-99.22 -41.346,-103.916C-42.701,-106.548 -42.888,-106.572 -46.019,-106.955C-47.004,-107.073 -47.333,-107.112 -48.6,-103.975C-48.877,-103.288 -49.139,-102.639 -49.489,-101.996C-50.198,-100.699 -50.901,-99.386 -51.607,-98.069C-57.375,-87.306 -63.912,-75.108 -75.52,-67.58C-83.916,-62.133 -94.593,-58.826 -106.395,-58.015C-109.527,-57.8 -112.373,-57.699 -115.045,-57.699C-122.716,-57.699 -128.957,-58.538 -136.496,-59.939C-146.489,-61.798 -158.926,-64.111 -165.824,-74.914C-169.663,-80.926 -172.095,-88.591 -173.919,-95.855C-176.493,-88.062 -177.562,-79.806 -176.769,-71.63C-176.054,-64.254 -173.915,-57.101 -171.787,-50.004C-164.493,-25.668 -157.198,-1.332 -149.903,23.004C-148.824,26.605 -147.712,30.275 -145.549,33.348C-143.623,36.085 -140.963,38.207 -138.29,40.222C-131.912,45.03 -124.346,49.67 -116.473,48.324C-105.636,46.469 -100.003,34.668 -96.118,24.383C-92.94,15.971 -89.763,7.558 -86.585,-0.855C-82.709,-11.115 -78.089,-22.246 -68.369,-27.327C-56.863,-33.341 -42.851,-28.563 -31.066,-23.111C-19.742,-17.872 -8.565,-12.007 3.566,-9.088C15.697,-6.169 29.212,-6.514 39.783,-13.143C41.245,-14.059 42.69,-15.15 43.443,-16.702C44.812,-19.526 43.48,-22.91 41.753,-25.53C32.034,-40.27 11.667,-44.19 0,-57.442" style="fill:rgb(32,31,35);fill-rule:nonzero;"/>
        </g>
        <g transform="matrix(1,0,0,1,726.414,286.61)">
            <path d="M0,62.35C-39.25,65.638 -45.851,50.326 -52.667,37.104C-56.072,30.498 -56.811,18.577 -52.827,14.672C-32.038,-5.704 6.502,1.472 16.948,3.148C27.273,4.803 28.726,9.998 29.943,16.105C30.778,20.291 38.962,59.086 0,62.35M-93.319,37.652C-100.491,51.307 -107.538,67.329 -151.662,65.371C-199.604,63.244 -189.162,19.331 -188.108,14.644C-186.576,7.822 -184.753,2.049 -171.975,0.581C-159.359,-0.868 -115.356,-6.963 -93.152,14.733C-89.012,18.779 -89.776,30.907 -93.319,37.652M46.905,1.472C40.336,-1.148 25.396,-3.285 15.364,-3.482C-9.545,-3.971 -27.758,-2.096 -50.808,2.544C-56.572,3.704 -63.463,5.347 -69.442,5.447C-81.454,5.646 -93.354,2.085 -105.41,-0.579C-136.626,-7.476 -171.79,-8.012 -205.367,-2.68C-205.652,2 -203.94,7.61 -203.117,13.203C-196.328,17.689 -196.267,24.753 -194.56,32.187C-192.854,39.609 -190.39,48.941 -186.245,55.431C-181.063,63.544 -171.932,65.68 -160.876,67.736C-151.128,69.549 -143.766,70.362 -132.283,69.573C-122.354,68.891 -112.406,66.244 -104.262,60.961C-92.655,53.433 -86.655,40.462 -80.233,28.704C-79.122,26.667 -77.817,19.802 -70.768,20.664C-66.278,21.213 -64.042,21.952 -61.489,26.912C-59.024,31.7 -56.69,36.472 -54.434,41.329C-50.502,49.787 -43.683,56.817 -35.424,60.968C-23.332,67.047 -9.191,66.769 3.966,65.11C14.235,63.815 25.248,61.196 31.522,52.912C39.596,42.252 40.798,16.611 46.406,14.578C47.186,9.039 46.734,5.872 46.905,1.472" style="fill:rgb(32,31,35);fill-rule:nonzero;"/>
        </g>
    </g>
</svg>
